<!-- Generated by IcoMoon.io -->
<svg version="1.1" xmlns="http://www.w3.org/2000/svg" width="29" height="32" viewBox="0 0 29 32">
<title>bad</title>
<path d="M4.571 10.286c0 0.625-0.518 1.143-1.143 1.143-0.642 0-1.143-0.518-1.143-1.143 0-0.642 0.501-1.143 1.143-1.143 0.625 0 1.143 0.501 1.143 1.143zM7.429 19.429v-11.429c0-0.625-0.518-1.143-1.143-1.143h-5.143c-0.625 0-1.143 0.518-1.143 1.143v11.429c0 0.625 0.518 1.143 1.143 1.143h5.143c0.625 0 1.143-0.518 1.143-1.143zM27.59 16.768c0.607 0.679 0.982 1.714 0.982 2.661-0.018 1.857-1.571 3.429-3.429 3.429h-4.946c0.143 0.571 0.321 0.75 0.518 1.143 0.464 0.928 1 1.965 1 3.429 0 1.375 0 4.571-4 4.571-0.304 0-0.59-0.125-0.803-0.339-0.768-0.75-0.982-1.857-1.178-2.911-0.214-1.035-0.41-2.107-1.107-2.803-0.553-0.553-1.161-1.321-1.803-2.143-0.786-1.035-2.501-3.161-3.161-3.214-0.59-0.054-1.089-0.553-1.089-1.143v-11.447c0-0.625 0.536-1.125 1.143-1.143 0.625-0.018 1.696-0.393 2.822-0.786 1.928-0.661 4.339-1.501 6.893-1.501h2.304c1.571 0.018 2.75 0.482 3.518 1.393 0.679 0.803 0.982 1.893 0.875 3.232 0.447 0.429 0.786 1.018 0.965 1.679 0.197 0.714 0.197 1.429 0 2.089 0.536 0.714 0.803 1.553 0.768 2.447 0 0.25-0.072 0.786-0.267 1.358z"></path>
</svg>
