<!-- Generated by IcoMoon.io -->
<svg version="1.1" xmlns="http://www.w3.org/2000/svg" width="30" height="32" viewBox="0 0 30 32">
<title>cart</title>
<path d="M11.429 27.429c0 1.25-1.035 2.286-2.286 2.286s-2.286-1.035-2.286-2.286 1.035-2.286 2.286-2.286 2.286 1.035 2.286 2.286zM27.429 27.429c0 1.25-1.035 2.286-2.286 2.286s-2.286-1.035-2.286-2.286 1.035-2.286 2.286-2.286 2.286 1.035 2.286 2.286zM29.714 8v9.143c0 0.571-0.447 1.072-1.018 1.143l-18.642 2.178c0.089 0.41 0.232 0.822 0.232 1.25 0 0.41-0.25 0.786-0.429 1.143h16.429c0.625 0 1.143 0.518 1.143 1.143s-0.518 1.143-1.143 1.143h-18.286c-0.625 0-1.143-0.518-1.143-1.143 0-0.553 0.803-1.893 1.089-2.447l-3.161-14.696h-3.642c-0.625 0-1.143-0.518-1.143-1.143s0.518-1.143 1.143-1.143h4.571c1.197 0 1.232 1.429 1.41 2.286h21.447c0.625 0 1.143 0.518 1.143 1.143z"></path>
</svg>
