<!-- Generated by IcoMoon.io -->
<svg version="1.1" xmlns="http://www.w3.org/2000/svg" width="30" height="32" viewBox="0 0 30 32">
<title>checked</title>
<path d="M25.143 16.607v5.679c0 2.839-2.304 5.143-5.143 5.143h-14.857c-2.839 0-5.143-2.304-5.143-5.143v-14.857c0-2.839 2.304-5.143 5.143-5.143h14.857c0.714 0 1.429 0.143 2.089 0.447 0.161 0.072 0.286 0.232 0.321 0.41 0.035 0.197-0.018 0.375-0.161 0.518l-0.875 0.875c-0.107 0.107-0.267 0.178-0.41 0.178-0.054 0-0.107-0.018-0.161-0.035-0.267-0.072-0.536-0.107-0.803-0.107h-14.857c-1.571 0-2.857 1.286-2.857 2.857v14.857c0 1.571 1.286 2.857 2.857 2.857h14.857c1.571 0 2.857-1.286 2.857-2.857v-4.536c0-0.143 0.054-0.286 0.161-0.393l1.143-1.143c0.125-0.125 0.267-0.178 0.41-0.178 0.072 0 0.143 0.018 0.214 0.054 0.214 0.089 0.358 0.286 0.358 0.518zM29.267 7.875l-14.536 14.536c-0.571 0.571-1.464 0.571-2.035 0l-7.679-7.679c-0.571-0.571-0.571-1.464 0-2.035l1.965-1.965c0.571-0.571 1.464-0.571 2.035 0l4.696 4.696 11.553-11.553c0.571-0.571 1.464-0.571 2.035 0l1.965 1.965c0.571 0.571 0.571 1.464 0 2.035z"></path>
</svg>
