<!-- Generated by IcoMoon.io -->
<svg version="1.1" xmlns="http://www.w3.org/2000/svg" width="32" height="32" viewBox="0 0 32 32">
<title>cut</title>
<path d="M25.312 4h4v1.312l-9.312 9.375-2.688-2.688zM16 16.688c0.375 0 0.688-0.312 0.688-0.688s-0.312-0.688-0.688-0.688-0.688 0.312-0.688 0.688 0.312 0.688 0.688 0.688zM8 26.688c1.437 0 2.688-1.188 2.688-2.688s-1.251-2.688-2.688-2.688-2.688 1.188-2.688 2.688 1.251 2.688 2.688 2.688zM8 10.688c1.437 0 2.688-1.188 2.688-2.688s-1.251-2.688-2.688-2.688-2.688 1.188-2.688 2.688 1.251 2.688 2.688 2.688zM12.875 10.188l16.437 16.5v1.312h-4l-9.312-9.312-3.125 3.125c0.312 0.688 0.437 1.375 0.437 2.188 0 2.937-2.375 5.312-5.312 5.312s-5.312-2.375-5.312-5.312 2.375-5.312 5.312-5.312c0.812 0 1.5 0.125 2.188 0.437l3.125-3.125-3.125-3.125c-0.688 0.312-1.375 0.437-2.188 0.437-2.937 0-5.312-2.375-5.312-5.312s2.375-5.312 5.312-5.312 5.312 2.375 5.312 5.312c0 0.812-0.125 1.5-0.437 2.188z"></path>
</svg>
