<!-- Generated by IcoMoon.io -->
<svg version="1.1" xmlns="http://www.w3.org/2000/svg" width="27" height="32" viewBox="0 0 27 32">
<title>disabled</title>
<path d="M23.429 15.946c0-1.946-0.571-3.75-1.553-5.267l-13.464 13.447c1.536 1 3.358 1.59 5.304 1.59 5.358 0 9.714-4.375 9.714-9.768zM5.59 21.286l13.482-13.464c-1.536-1.035-3.375-1.625-5.358-1.625-5.358 0-9.714 4.375-9.714 9.75 0 1.982 0.59 3.803 1.59 5.339zM27.429 15.946c0 7.607-6.143 13.768-13.714 13.768s-13.714-6.161-13.714-13.768c0-7.59 6.143-13.75 13.714-13.75s13.714 6.161 13.714 13.75z"></path>
</svg>
