<!-- Generated by IcoMoon.io -->
<svg version="1.1" xmlns="http://www.w3.org/2000/svg" width="29" height="32" viewBox="0 0 29 32">
<title>good</title>
<path d="M4.571 24c0-0.625-0.518-1.143-1.143-1.143-0.642 0-1.143 0.518-1.143 1.143 0 0.642 0.501 1.143 1.143 1.143 0.625 0 1.143-0.501 1.143-1.143zM7.429 14.857v11.429c0 0.625-0.518 1.143-1.143 1.143h-5.143c-0.625 0-1.143-0.518-1.143-1.143v-11.429c0-0.625 0.518-1.143 1.143-1.143h5.143c0.625 0 1.143 0.518 1.143 1.143zM28.571 14.857c0 0.946-0.375 1.965-0.982 2.661 0.197 0.571 0.267 1.107 0.267 1.358 0.035 0.893-0.232 1.733-0.768 2.447 0.197 0.661 0.197 1.375 0 2.089-0.178 0.661-0.518 1.25-0.965 1.679 0.107 1.339-0.197 2.429-0.875 3.232-0.768 0.911-1.946 1.375-3.518 1.393h-2.304c-2.553 0-4.965-0.839-6.893-1.501-1.125-0.393-2.197-0.768-2.822-0.786-0.607-0.018-1.143-0.518-1.143-1.143v-11.447c0-0.59 0.501-1.089 1.089-1.143 0.661-0.054 2.375-2.178 3.161-3.214 0.642-0.822 1.25-1.59 1.803-2.143 0.696-0.696 0.893-1.768 1.107-2.803 0.197-1.054 0.41-2.161 1.178-2.911 0.214-0.214 0.501-0.339 0.803-0.339 4 0 4 3.197 4 4.571 0 1.464-0.518 2.501-1 3.429-0.197 0.393-0.375 0.571-0.518 1.143h4.946c1.857 0 3.429 1.571 3.429 3.429z"></path>
</svg>
