<!-- Generated by IcoMoon.io -->
<svg version="1.1" xmlns="http://www.w3.org/2000/svg" width="25" height="32" viewBox="0 0 25 32">
<title>link</title>
<path d="M25.072 24.733c0 2.786-2.125 4.911-4.911 4.911-1.571 0-3.089-0.679-4.197-1.786l-13.875-13.857c-1.267-1.286-2.018-3.035-2.018-4.839 0-3.786 2.982-6.803 6.768-6.803 1.822 0 3.571 0.733 4.875 2.018l10.803 10.822c0.107 0.107 0.178 0.25 0.178 0.393 0 0.375-1 1.375-1.375 1.375-0.161 0-0.304-0.072-0.41-0.178l-10.822-10.839c-0.857-0.839-2.018-1.375-3.232-1.375-2.536 0-4.501 2.054-4.501 4.571 0 1.214 0.501 2.375 1.358 3.232l13.857 13.875c0.679 0.679 1.625 1.125 2.59 1.125 1.518 0 2.642-1.125 2.642-2.642 0-0.982-0.447-1.911-1.125-2.59l-10.375-10.375c-0.286-0.267-0.679-0.429-1.072-0.429-0.679 0-1.197 0.501-1.197 1.197 0 0.393 0.178 0.768 0.447 1.054l7.321 7.321c0.107 0.107 0.178 0.25 0.178 0.393 0 0.375-1.018 1.393-1.393 1.393-0.143 0-0.286-0.072-0.393-0.178l-7.321-7.321c-0.714-0.696-1.125-1.679-1.125-2.661 0-1.965 1.536-3.499 3.501-3.499 1 0 1.965 0.41 2.661 1.125l10.375 10.375c1.125 1.107 1.786 2.625 1.786 4.197z"></path>
</svg>
