<!-- Generated by IcoMoon.io -->
<svg version="1.1" xmlns="http://www.w3.org/2000/svg" width="33" height="32" viewBox="0 0 33 32">
<title>open</title>
<path d="M33.553 17c0 0.429-0.267 0.857-0.553 1.178l-6 7.072c-1.035 1.214-3.143 2.178-4.714 2.178h-19.429c-0.642 0-1.553-0.197-1.553-1 0-0.429 0.267-0.857 0.553-1.178l6-7.072c1.035-1.214 3.143-2.178 4.714-2.178h19.429c0.642 0 1.553 0.197 1.553 1zM27.429 10.857v2.857h-14.857c-2.232 0-5 1.267-6.447 2.982l-6.107 7.178c0-0.143-0.018-0.304-0.018-0.447v-17.143c0-2.197 1.803-4 4-4h5.714c2.197 0 4 1.803 4 4v0.571h9.714c2.197 0 4 1.803 4 4z"></path>
</svg>
