<!-- Generated by IcoMoon.io -->
<svg version="1.1" xmlns="http://www.w3.org/2000/svg" width="27" height="32" viewBox="0 0 27 32">
<title>refresh2</title>
<path d="M26.982 18.857c0 0.035 0 0.089-0.018 0.125-1.518 6.321-6.733 10.733-13.321 10.733-3.482 0-6.857-1.375-9.393-3.786l-2.304 2.304c-0.214 0.214-0.501 0.339-0.803 0.339-0.625 0-1.143-0.518-1.143-1.143v-8c0-0.625 0.518-1.143 1.143-1.143h8c0.625 0 1.143 0.518 1.143 1.143 0 0.304-0.125 0.59-0.339 0.803l-2.447 2.447c1.679 1.571 3.911 2.464 6.214 2.464 3.178 0 6.125-1.642 7.786-4.358 0.429-0.696 0.642-1.375 0.946-2.089 0.089-0.25 0.267-0.41 0.536-0.41h3.429c0.321 0 0.571 0.267 0.571 0.571zM27.429 4.571v8c0 0.625-0.518 1.143-1.143 1.143h-8c-0.625 0-1.143-0.518-1.143-1.143 0-0.304 0.125-0.59 0.339-0.803l2.464-2.464c-1.696-1.571-3.928-2.447-6.232-2.447-3.178 0-6.125 1.642-7.786 4.358-0.429 0.696-0.642 1.375-0.946 2.089-0.089 0.25-0.267 0.41-0.536 0.41h-3.553c-0.321 0-0.571-0.267-0.571-0.571v-0.125c1.536-6.339 6.803-10.733 13.393-10.733 3.501 0 6.911 1.393 9.447 3.786l2.321-2.304c0.214-0.214 0.501-0.339 0.803-0.339 0.625 0 1.143 0.518 1.143 1.143z"></path>
</svg>
