<!-- Generated by IcoMoon.io -->
<svg version="1.1" xmlns="http://www.w3.org/2000/svg" width="18" height="32" viewBox="0 0 18 32">
<title>usd</title>
<path d="M17.464 21.161c0 3.642-2.607 6.518-6.393 7.143v3.125c0 0.321-0.25 0.571-0.571 0.571h-2.41c-0.304 0-0.571-0.25-0.571-0.571v-3.125c-4.178-0.59-6.464-3.089-6.553-3.197-0.178-0.214-0.197-0.518-0.035-0.733l1.839-2.41c0.089-0.125 0.25-0.197 0.41-0.214s0.321 0.035 0.429 0.161c0.035 0.018 2.536 2.41 5.696 2.41 1.75 0 3.642-0.928 3.642-2.946 0-1.714-2.107-2.553-4.518-3.518-3.214-1.267-7.214-2.875-7.214-7.358 0-3.286 2.571-6 6.304-6.714v-3.214c0-0.321 0.267-0.571 0.571-0.571h2.41c0.321 0 0.571 0.25 0.571 0.571v3.143c3.625 0.41 5.553 2.375 5.625 2.447 0.178 0.197 0.214 0.464 0.089 0.679l-1.447 2.607c-0.089 0.161-0.232 0.267-0.41 0.286-0.178 0.035-0.339-0.018-0.482-0.125-0.018-0.018-2.178-1.928-4.857-1.928-2.267 0-3.839 1.125-3.839 2.75 0 1.893 2.178 2.733 4.714 3.714 3.286 1.267 7 2.714 7 7.018z"></path>
</svg>
