<!-- Generated by IcoMoon.io -->
<svg version="1.1" xmlns="http://www.w3.org/2000/svg" width="27" height="32" viewBox="0 0 27 32">
<title>youtube</title>
<path d="M17.339 22.214v3.768c0 0.803-0.232 1.197-0.696 1.197-0.267 0-0.536-0.125-0.803-0.393v-5.375c0.267-0.267 0.536-0.393 0.803-0.393 0.464 0 0.696 0.41 0.696 1.197zM23.375 22.232v0.822h-1.607v-0.822c0-0.803 0.267-1.214 0.803-1.214s0.803 0.41 0.803 1.214zM6.125 18.339h1.911v-1.679h-5.571v1.679h1.875v10.161h1.786v-10.161zM11.267 28.501h1.59v-8.822h-1.59v6.75c-0.358 0.501-0.696 0.75-1.018 0.75-0.214 0-0.339-0.125-0.375-0.375-0.018-0.054-0.018-0.25-0.018-0.625v-6.501h-1.59v6.982c0 0.625 0.054 1.035 0.143 1.304 0.143 0.447 0.518 0.661 1.035 0.661 0.571 0 1.178-0.358 1.822-1.089v0.965zM18.928 25.857v-3.518c0-0.822-0.035-1.41-0.161-1.768-0.197-0.661-0.642-1-1.267-1-0.59 0-1.143 0.321-1.661 0.965v-3.875h-1.59v11.839h1.59v-0.857c0.536 0.661 1.089 0.982 1.661 0.982 0.625 0 1.072-0.339 1.267-0.982 0.125-0.375 0.161-0.965 0.161-1.786zM24.965 25.679v-0.232h-1.625c0 0.642-0.018 1-0.035 1.089-0.089 0.429-0.321 0.642-0.714 0.642-0.553 0-0.822-0.41-0.822-1.232v-1.553h3.197v-1.839c0-0.946-0.161-1.625-0.482-2.072-0.464-0.607-1.089-0.911-1.893-0.911-0.822 0-1.447 0.304-1.911 0.911-0.339 0.447-0.501 1.125-0.501 2.072v3.089c0 0.946 0.178 1.642 0.518 2.072 0.464 0.607 1.089 0.911 1.928 0.911s1.501-0.321 1.928-0.946c0.197-0.286 0.339-0.607 0.375-0.965 0.035-0.161 0.035-0.518 0.035-1.035zM14.107 9.375v-3.75c0-0.822-0.232-1.232-0.768-1.232-0.518 0-0.768 0.41-0.768 1.232v3.75c0 0.822 0.25 1.25 0.768 1.25 0.536 0 0.768-0.429 0.768-1.25zM26.946 22.786c0 2.054-0.018 4.25-0.464 6.25-0.339 1.41-1.482 2.447-2.857 2.59-3.286 0.375-6.607 0.375-9.911 0.375s-6.625 0-9.911-0.375c-1.375-0.143-2.536-1.178-2.857-2.59-0.464-2-0.464-4.197-0.464-6.25v0c0-2.072 0.018-4.25 0.464-6.25 0.339-1.41 1.482-2.447 2.875-2.607 3.267-0.358 6.59-0.358 9.893-0.358s6.625 0 9.911 0.358c1.375 0.161 2.536 1.197 2.857 2.607 0.464 2 0.464 4.178 0.464 6.25zM9.125 0h1.822l-2.161 7.125v4.839h-1.786v-4.839c-0.161-0.875-0.518-2.125-1.089-3.786-0.393-1.107-0.786-2.232-1.161-3.339h1.893l1.267 4.696zM15.733 5.946v3.125c0 0.946-0.161 1.661-0.501 2.107-0.447 0.607-1.072 0.911-1.893 0.911-0.803 0-1.429-0.304-1.875-0.911-0.339-0.464-0.501-1.161-0.501-2.107v-3.125c0-0.946 0.161-1.642 0.501-2.089 0.447-0.607 1.072-0.911 1.875-0.911 0.822 0 1.447 0.304 1.893 0.911 0.339 0.447 0.501 1.143 0.501 2.089zM21.714 3.054v8.911h-1.625v-0.982c-0.642 0.75-1.25 1.107-1.839 1.107-0.518 0-0.893-0.214-1.054-0.661-0.089-0.267-0.143-0.696-0.143-1.339v-7.035h1.625v6.553c0 0.375 0 0.59 0.018 0.625 0.035 0.25 0.161 0.393 0.375 0.393 0.321 0 0.661-0.25 1.018-0.768v-6.803h1.625z"></path>
</svg>
